<svg width="2090" height="1057" viewBox="0 0 2090 1057" fill="none" xmlns="http://www.w3.org/2000/svg">
<rect width="2090" height="1057" fill="#E5E5E5"/>
<rect x="-76" y="-69" width="2382" height="1328" fill="#E9E9E9"/>
<path d="M335.693 154.121C340.081 154.121 343.638 150.564 343.638 146.176C343.638 141.788 340.081 138.231 335.693 138.231C331.305 138.231 327.748 141.788 327.748 146.176C327.748 150.564 331.305 154.121 335.693 154.121Z" fill="#4B89DC"/>
<path d="M349.698 149.265C351.404 149.265 352.786 147.882 352.786 146.176C352.786 144.471 351.404 143.088 349.698 143.088C347.992 143.088 346.61 144.471 346.61 146.176C346.61 147.882 347.992 149.265 349.698 149.265Z" fill="#DC4453"/>
<path d="M502.598 1031.2C752.561 1031.2 955.196 828.561 955.196 578.598C955.196 328.635 752.561 126 502.598 126C252.635 126 50 328.635 50 578.598C50 828.561 252.635 1031.2 502.598 1031.2Z" fill="#FB6E52"/>
<path d="M1731.05 196.02C1741.22 196.02 1749.47 187.111 1749.47 176.123C1749.47 165.134 1741.22 156.226 1731.05 156.226C1720.88 156.226 1712.64 165.134 1712.64 176.123C1712.64 187.111 1720.88 196.02 1731.05 196.02Z" fill="#4B89DC"/>
<path d="M1587.54 186V202.727H1582.33V159.998H1596.91C1601.24 159.998 1604.63 161.192 1607.07 163.578C1609.54 165.965 1610.77 169.125 1610.77 173.057C1610.77 177.205 1609.56 180.404 1607.15 182.654C1604.76 184.884 1601.33 186 1596.86 186H1587.54ZM1587.54 181.392H1596.91C1599.7 181.392 1601.84 180.688 1603.32 179.279C1604.81 177.851 1605.55 175.797 1605.55 173.116C1605.55 170.573 1604.81 168.538 1603.32 167.012C1601.84 165.486 1599.8 164.694 1597.21 164.635H1587.54V181.392ZM1622.63 186V202.727H1617.42V159.998H1632C1636.33 159.998 1639.72 161.192 1642.16 163.578C1644.62 165.965 1645.85 169.125 1645.85 173.057C1645.85 177.205 1644.65 180.404 1642.24 182.654C1639.85 184.884 1636.42 186 1631.95 186H1622.63ZM1622.63 181.392H1632C1634.79 181.392 1636.93 180.688 1638.42 179.279C1639.9 177.851 1640.64 175.797 1640.64 173.116C1640.64 170.573 1639.9 168.538 1638.42 167.012C1636.93 165.486 1634.89 164.694 1632.3 164.635H1622.63V181.392ZM1670.6 191.576H1654.03L1650.31 202.727H1644.93L1660.03 159.998H1664.59L1679.72 202.727H1674.37L1670.6 191.576ZM1655.61 186.939H1669.05L1662.31 166.953L1655.61 186.939Z" fill="black"/>
<path d="M185.215 143.002V159.729H180V117H194.585C198.912 117 202.298 118.194 204.743 120.58C207.206 122.967 208.437 126.127 208.437 130.059C208.437 134.207 207.232 137.406 204.824 139.656C202.434 141.886 199.004 143.002 194.531 143.002H185.215ZM185.215 138.394H194.585C197.373 138.394 199.509 137.69 200.995 136.281C202.481 134.853 203.222 132.799 203.222 130.118C203.222 127.575 202.481 125.54 200.995 124.014C199.509 122.488 197.472 121.696 194.884 121.637H185.215V138.394ZM220.305 143.002V159.729H215.091V117H229.675C234.002 117 237.388 118.194 239.833 120.58C242.295 122.967 243.525 126.127 243.525 130.059C243.525 134.207 242.322 137.406 239.914 139.656C237.525 141.886 234.093 143.002 229.62 143.002H220.305ZM220.305 138.394H229.675C232.463 138.394 234.6 137.69 236.086 136.281C237.569 134.853 238.311 132.799 238.311 130.118C238.311 127.575 237.569 125.54 236.086 124.014C234.6 122.488 232.563 121.696 229.974 121.637H220.305V138.394ZM268.268 148.578H251.702L247.98 159.729H242.603L257.704 117H262.265L277.395 159.729H272.043L268.268 148.578ZM253.278 143.941H266.72L259.985 123.955L253.278 143.941Z" fill="black"/>
<path d="M1763.51 183.857C1767.46 183.857 1770.67 180.394 1770.67 176.123C1770.67 171.852 1767.46 168.389 1763.51 168.389C1759.56 168.389 1756.35 171.852 1756.35 176.123C1756.35 180.394 1759.56 183.857 1763.51 183.857Z" fill="#DC4453"/>
<path d="M2117.87 2392.47C2697.18 2392.47 3166.81 1885.01 3166.81 1259.03C3166.81 633.052 2697.18 125.595 2117.87 125.595C1538.56 125.595 1068.93 633.052 1068.93 1259.03C1068.93 1885.01 1538.56 2392.47 2117.87 2392.47Z" fill="#FB6E52"/>
<path d="M1612.39 593.077H1607.15V573.326H1587.21V593.077H1582V550.349H1587.21V568.718H1607.15V550.349H1612.39V593.077ZM1639.01 593.077C1638.72 592.451 1638.48 591.337 1638.3 589.732C1635.97 592.354 1633.18 593.663 1629.93 593.663C1627.04 593.663 1624.66 592.784 1622.79 591.024C1620.94 589.243 1620.02 586.992 1620.02 584.272C1620.02 580.967 1621.18 578.405 1623.5 576.584C1625.84 574.746 1629.11 573.827 1633.33 573.827H1638.22V571.33C1638.22 569.434 1637.69 567.927 1636.64 566.812C1635.59 565.678 1634.05 565.109 1632 565.109C1630.21 565.109 1628.7 565.598 1627.49 566.577C1626.28 567.556 1625.67 568.738 1625.67 570.128H1620.62C1620.62 568.543 1621.13 567.018 1622.17 565.55C1623.22 564.063 1624.63 562.888 1626.41 562.029C1628.2 561.168 1630.16 560.737 1632.3 560.737C1635.68 560.737 1638.34 561.656 1640.26 563.497C1642.17 565.315 1643.17 567.829 1643.24 571.037V585.652C1643.24 588.567 1643.59 590.886 1644.28 592.609V593.077H1639.01ZM1630.67 588.94C1632.24 588.94 1633.74 588.499 1635.15 587.618C1636.56 586.739 1637.59 585.594 1638.22 584.185V577.671H1634.28C1628.12 577.671 1625.05 579.617 1625.05 583.511C1625.05 585.211 1625.57 586.544 1626.62 587.5C1627.67 588.459 1629.02 588.94 1630.67 588.94ZM1657.94 553.635V561.323H1663.42V565.52H1657.94V585.211C1657.94 586.484 1658.18 587.443 1658.67 588.089C1659.16 588.715 1659.99 589.028 1661.17 589.028C1661.75 589.028 1662.54 588.91 1663.56 588.675V593.077C1662.24 593.468 1660.95 593.663 1659.7 593.663C1657.46 593.663 1655.76 592.93 1654.62 591.462C1653.48 589.997 1652.91 587.913 1652.91 585.211V565.52H1647.56V561.323H1652.91V553.635H1657.94ZM1674.34 565.167C1676.57 562.214 1679.46 560.737 1683.03 560.737C1689.24 560.737 1692.38 564.523 1692.43 572.094V593.077H1687.4V572.064C1687.39 569.775 1686.9 568.084 1685.94 566.988C1685 565.893 1683.52 565.345 1681.51 565.345C1679.88 565.345 1678.45 565.813 1677.22 566.752C1675.99 567.691 1675.03 568.923 1674.34 570.451V593.077H1669.32V548H1674.34V565.167ZM1705.41 593.077H1700.39V561.323H1705.41V593.077ZM1699.98 552.901C1699.98 552.019 1700.22 551.278 1700.71 550.67C1701.22 550.064 1701.96 549.761 1702.94 549.761C1703.92 549.761 1704.66 550.064 1705.17 550.67C1705.67 551.278 1705.93 552.019 1705.93 552.901C1705.93 553.782 1705.67 554.516 1705.17 555.102C1704.66 555.688 1703.92 555.984 1702.94 555.984C1701.96 555.984 1701.22 555.688 1700.71 555.102C1700.22 554.516 1699.98 553.782 1699.98 552.901ZM1741.59 554.984H1728.88V593.077H1723.69V554.984H1711.01V550.349H1741.59V554.984ZM1758.81 566.196C1758.04 566.059 1757.22 565.991 1756.33 565.991C1753.04 565.991 1750.8 567.506 1749.63 570.539V593.077H1744.6V561.323H1749.49L1749.57 564.992C1751.22 562.154 1753.56 560.737 1756.58 560.737C1757.56 560.737 1758.3 560.875 1758.81 561.148V566.196ZM1781.59 589.937C1779.64 592.421 1776.77 593.663 1772.98 593.663C1769.85 593.663 1767.46 592.687 1765.81 590.731C1764.18 588.752 1763.36 585.837 1763.34 581.983V561.323H1768.37V581.838C1768.37 586.651 1770.18 589.058 1773.8 589.058C1777.64 589.058 1780.19 587.51 1781.46 584.42V561.323H1786.48V593.077H1781.7L1781.59 589.937ZM1811.25 584.655C1811.25 583.188 1810.74 582.053 1809.7 581.25C1808.69 580.428 1806.9 579.724 1804.35 579.138C1801.82 578.55 1799.8 577.846 1798.3 577.025C1796.81 576.203 1795.71 575.224 1794.98 574.09C1794.28 572.955 1793.92 571.605 1793.92 570.04C1793.92 567.438 1794.94 565.237 1796.96 563.436C1799.01 561.636 1801.62 560.737 1804.79 560.737C1808.12 560.737 1810.82 561.666 1812.88 563.524C1814.96 565.382 1816 567.761 1816 570.656H1810.95C1810.95 569.169 1810.36 567.887 1809.19 566.812C1808.03 565.735 1806.56 565.197 1804.79 565.197C1802.96 565.197 1801.53 565.628 1800.5 566.489C1799.46 567.351 1798.95 568.475 1798.95 569.863C1798.95 571.175 1799.43 572.161 1800.39 572.828C1801.35 573.494 1803.08 574.13 1805.57 574.736C1808.09 575.342 1810.13 576.066 1811.69 576.907C1813.24 577.749 1814.39 578.765 1815.13 579.96C1815.89 581.132 1816.27 582.572 1816.27 584.272C1816.27 587.11 1815.22 589.388 1813.12 591.111C1811.03 592.814 1808.3 593.663 1804.95 593.663C1802.6 593.663 1800.51 593.215 1798.7 592.314C1796.89 591.414 1795.47 590.162 1794.44 588.557C1793.43 586.934 1792.92 585.184 1792.92 583.306H1797.94C1798.03 585.124 1798.7 586.571 1799.95 587.648C1801.22 588.705 1802.89 589.233 1804.95 589.233C1806.85 589.233 1808.37 588.823 1809.51 588.001C1810.67 587.16 1811.25 586.043 1811.25 584.655ZM1829.64 553.635V561.323H1835.12V565.52H1829.64V585.211C1829.64 586.484 1829.88 587.443 1830.37 588.089C1830.86 588.715 1831.69 589.028 1832.87 589.028C1833.45 589.028 1834.25 588.91 1835.26 588.675V593.077C1833.94 593.468 1832.65 593.663 1831.4 593.663C1829.16 593.663 1827.47 592.93 1826.32 591.462C1825.18 589.997 1824.61 587.913 1824.61 585.211V565.52H1819.26V561.323H1824.61V553.635H1829.64Z" fill="black"/>
<path d="M406.391 593.077H401.148V573.326H381.215V593.077H376V550.349H381.215V568.718H401.148V550.349H406.391V593.077ZM433.006 593.077C432.716 592.451 432.482 591.337 432.299 589.732C429.965 592.354 427.177 593.663 423.935 593.663C421.038 593.663 418.658 592.784 416.792 591.024C414.945 589.243 414.023 586.992 414.023 584.272C414.023 580.967 415.181 578.405 417.499 576.584C419.835 574.746 423.112 573.827 427.33 573.827H432.218V571.33C432.218 569.434 431.694 567.927 430.644 566.812C429.594 565.678 428.046 565.109 426 565.109C424.206 565.109 422.704 565.598 421.49 566.577C420.278 567.556 419.671 568.738 419.671 570.128H414.62C414.62 568.543 415.135 567.018 416.169 565.55C417.218 564.063 418.63 562.888 420.405 562.029C422.197 561.168 424.162 560.737 426.299 560.737C429.685 560.737 432.336 561.656 434.255 563.497C436.174 565.315 437.171 567.829 437.243 571.037V585.652C437.243 588.567 437.588 590.886 438.276 592.609V593.077H433.006ZM424.67 588.94C426.243 588.94 427.738 588.499 429.149 587.618C430.561 586.739 431.585 585.594 432.218 584.185V577.671H428.28C422.125 577.671 419.047 579.617 419.047 583.511C419.047 585.211 419.571 586.544 420.621 587.5C421.673 588.459 423.022 588.94 424.67 588.94ZM451.936 553.635V561.323H457.422V565.52H451.936V585.211C451.936 586.484 452.182 587.443 452.671 588.089C453.157 588.715 453.992 589.028 455.169 589.028C455.749 589.028 456.543 588.91 457.559 588.675V593.077C456.238 593.468 454.951 593.663 453.702 593.663C451.456 593.663 449.765 592.93 448.622 591.462C447.482 589.997 446.912 587.913 446.912 585.211V565.52H441.563V561.323H446.912V553.635H451.936ZM468.34 565.167C470.567 562.214 473.464 560.737 477.031 560.737C483.242 560.737 486.376 564.523 486.429 572.094V593.077H481.404V572.064C481.386 569.775 480.897 568.084 479.937 566.988C478.996 565.893 477.52 565.345 475.511 565.345C473.881 565.345 472.452 565.813 471.219 566.752C469.988 567.691 469.028 568.923 468.34 570.451V593.077H463.316V548H468.34V565.167ZM499.412 593.077H494.388V561.323H499.412V593.077ZM493.98 552.901C493.98 552.019 494.223 551.278 494.712 550.67C495.22 550.064 495.961 549.761 496.939 549.761C497.917 549.761 498.659 550.064 499.166 550.67C499.674 551.278 499.927 552.019 499.927 552.901C499.927 553.782 499.674 554.516 499.166 555.102C498.659 555.688 497.917 555.984 496.939 555.984C495.961 555.984 495.22 555.688 494.712 555.102C494.223 554.516 493.98 553.782 493.98 552.901ZM535.587 554.984H522.878V593.077H517.689V554.984H505.007V550.349H535.587V554.984ZM552.807 566.196C552.045 566.059 551.222 565.991 550.334 565.991C547.039 565.991 544.802 567.506 543.627 570.539V593.077H538.603V561.323H543.49L543.572 564.992C545.219 562.154 547.556 560.737 550.58 560.737C551.558 560.737 552.3 560.875 552.807 561.148V566.196ZM575.594 589.937C573.638 592.421 570.769 593.663 566.984 593.663C563.851 593.663 561.461 592.687 559.813 590.731C558.184 588.752 557.359 585.837 557.343 581.983V561.323H562.367V581.838C562.367 586.651 564.177 589.058 567.797 589.058C571.638 589.058 574.189 587.51 575.457 584.42V561.323H580.482V593.077H575.7L575.594 589.937ZM605.25 584.655C605.25 583.188 604.735 582.053 603.704 581.25C602.689 580.428 600.904 579.724 598.353 579.138C595.817 578.55 593.799 577.846 592.297 577.025C590.811 576.203 589.706 575.224 588.983 574.09C588.276 572.955 587.923 571.605 587.923 570.04C587.923 567.438 588.936 565.237 590.964 563.436C593.011 561.636 595.618 560.737 598.786 560.737C602.119 560.737 604.816 561.666 606.881 563.524C608.963 565.382 610.003 567.761 610.003 570.656H604.953C604.953 569.169 604.365 567.887 603.187 566.812C602.028 565.735 600.561 565.197 598.786 565.197C596.957 565.197 595.527 565.628 594.496 566.489C593.465 567.351 592.948 568.475 592.948 569.863C592.948 571.175 593.428 572.161 594.387 572.828C595.347 573.494 597.076 574.13 599.574 574.736C602.091 575.342 604.128 576.066 605.686 576.907C607.243 577.749 608.393 578.765 609.134 579.96C609.894 581.132 610.274 582.572 610.274 584.272C610.274 587.11 609.225 589.388 607.125 591.111C605.025 592.814 602.3 593.663 598.951 593.663C596.596 593.663 594.515 593.215 592.702 592.314C590.892 591.414 589.472 590.162 588.44 588.557C587.425 586.934 586.918 585.184 586.918 583.306H591.942C592.033 585.124 592.702 586.571 593.952 587.648C595.219 588.705 596.886 589.233 598.951 589.233C600.851 589.233 602.371 588.823 603.512 588.001C604.67 587.16 605.25 586.043 605.25 584.655ZM623.638 553.635V561.323H629.123V565.52H623.638V585.211C623.638 586.484 623.883 587.443 624.37 588.089C624.859 588.715 625.693 589.028 626.871 589.028C627.45 589.028 628.245 588.91 629.26 588.675V593.077C627.939 593.468 626.653 593.663 625.404 593.663C623.158 593.663 621.466 592.93 620.324 591.462C619.183 589.997 618.613 587.913 618.613 585.211V565.52H613.264V561.323H618.613V553.635H623.638Z" fill="black"/>
</svg>
